<svg width="183" height="44.009" xmlns="http://www.w3.org/2000/svg" data-name="Layer 2"><defs><style></style></defs><g class="layer"><path d="M9.9 31.956C9.9 35.53 5.821 41.148 0 44a42.245 42.245 0 0 0 22.155-6.023A37.95 37.95 0 0 0 29 38.7a28.667 28.667 0 0 0 17.765-5.717c4.595-3.475 7.352-8.274 7.352-13.685 0-5.312-2.757-10.11-7.352-13.685A29.289 29.289 0 0 0 29 0a29.52 29.52 0 0 0-17.769 5.609c-4.593 3.576-7.348 8.374-7.348 13.686A16.864 16.864 0 0 0 9.9 31.956z" id="svg_1" transform="translate(0 .004)" style="fill:#594cda;fill-rule:evenodd"/><text fill="#000" font-family="Sans-serif" font-size="24" font-style="normal" font-weight="bold" id="svg_10" stroke="#000" stroke-width="0" text-anchor="middle" transform="matrix(1.47961 0 0 1.81387 -43.021 53.626)" x="113.202" xml:space="preserve" y="-7.679">Stator</text><text fill="red" font-family="Sans-serif" font-size="24" font-style="normal" font-weight="bold" id="svg_14" stroke="#000" stroke-width="0" text-anchor="middle" transform="matrix(1.47961 0 0 1.81387 -43.021 53.626)" x="72.24" xml:space="preserve" y="-7.768">i</text></g></svg>